# xmcd
#
# Track frame offsets:
#	150
#	28172
#	38209
#	70251
#	80070
#	94743
#	126927
#	138012
#	152436
#	187659
#	202555
#	221383
#	250647
#
# Disc length: 3719 seconds
#
# Revision: 0
# Processed by: cddbd v1.4PL0 Copyright (c) Steve Scherf et al.
# Submitted via: dBpowerAMP V4.0
#
DISCID=9f0e850d
DTITLE=The Doors - Greatest Hits
DYEAR=1900
DGENRE=
TTITLE0=Roadhouse blues(live)
TTITLE1=Hello,I love you
TTITLE2=Light my fire
TTITLE3=Peoplr are strange
TTITLE4=Love me two times
TTITLE5=Riders on the storm
TTITLE6=Break on through
TTITLE7=Touch me
TTITLE8=L.A woman
TTITLE9=Love her madly
TTITLE10=The ghost song
TTITLE11=The end
TTITLE12=Gloria
EXTD=
EXTT0=
EXTT1=
EXTT2=
EXTT3=
EXTT4=
EXTT5=
EXTT6=
EXTT7=
EXTT8=
EXTT9=
EXTT10=
EXTT11=
EXTT12=
PLAYORDER=
